<?xml version="1.0" encoding="UTF-8"?>
<svg width="215px" height="160px" viewBox="0 0 215 160" version="1.1" xmlns="http://www.w3.org/2000/svg" xmlns:xlink="http://www.w3.org/1999/xlink">
    <title>Icon-Discord-Green</title>
    <g id="Page-1" stroke="none" stroke-width="1" fill="none" fill-rule="evenodd">
        <g id="Desktop-HD" transform="translate(-1079.000000, -3405.000000)" fill="#666666">
            <g id="Icon-Discord-Green" transform="translate(1079.000000, 3405.000000)">
                <path d="M0,129.293641 C0.307248591,133.420611 3.46116579,135.50557 6.69570803,137.642872 L6.74925649,137.679108 L6.78903151,137.705279 L6.81583934,137.723398 C7.15486763,137.947529 7.49476937,138.171661 7.8319836,138.400489 C21.5813076,147.271799 36.2920181,154.255439 51.9641822,159.446027 C54.4635584,160.295579 55.8099966,159.917777 57.2518411,157.747594 C60.1362019,153.405887 62.9244845,149.06485 65.5206108,144.534577 C66.7709708,142.458342 66.2899081,141.514171 64.0787664,140.66529 C62.3466717,139.97008 48.5631492,134.544624 49.5602122,132.832099 C50.3295095,131.510126 51.771354,129.906311 53.8870894,130.378061 C54.6563867,130.566627 55.4256839,131.038376 56.1943093,131.322231 C90.5190764,145.384129 124.843844,145.478747 159.072533,131.132995 C160.414268,130.529048 161.588034,129.849272 163.015097,130.755863 C165.995536,132.832099 166.091614,133.492414 162.822941,135.0969 C158.784298,137.079188 154.650249,138.966857 150.515528,140.759909 C148.496543,141.60879 148.11223,142.55296 149.169762,144.439959 C151.958045,149.253416 154.842405,153.972255 158.015001,158.502528 C159.072533,160.012395 160.130736,160.295579 161.957565,159.729882 C180.129106,154.066873 196.858801,145.667313 212.338809,134.813716 C213.588497,133.964164 214.165638,132.832099 214.261716,131.322231 C218.011453,89.0405777 207.435463,50.3456977 183.494529,15.1434429 C182.629154,13.8222083 181.571622,12.8784405 180.033027,12.2176555 C167.245224,6.74395023 154.073108,2.68542684 140.323851,0.137508943 C138.016631,-0.334374927 136.958428,0.420491633 136.189802,2.21354297 C135.384224,4.58457152 133.841598,9.53525874 131.382534,10.5190212 C129.074643,11.4627218 125.805969,10.2355688 122.920936,9.95265318 C110.518118,8.81998426 98.0185489,8.91440129 85.7118084,10.6135053 C83.5967448,10.8964209 82.5392131,10.424537 81.5777595,8.44251742 C79.3827427,3.90016544 78.2775078,1.6116763 76.4634444,0.735684827 C74.6218341,-0.154197426 72.0498953,0.412170587 66.867049,1.55316055 C56.0982311,3.91264701 45.7143978,7.40426554 35.5227209,11.6512875 C33.3109072,12.5950552 31.7729846,13.9166924 30.5226246,15.8982423 C6.59647204,52.1333806 1.91739783,87.887039 0,129.293641 L0,129.293641 Z M155.611703,104.141264 C166.326771,93.8419558 164.059863,73.2976943 149.073684,67.9943692 C141.766368,65.3524369 135.324427,67.2401066 130.036096,72.5253133 C122.536624,79.9807026 121.767326,92.3441674 127.921033,101.026911 C134.747286,110.464589 147.342933,111.974456 155.611703,104.141264 Z M84.2692921,104.047317 C95.2437038,93.4990482 92.4151086,73.1306023 77.3469605,67.9004219 C70.3278788,65.5410025 64.0787664,67.3340539 58.8865138,72.3360766 C50.8099004,80.0746499 50.2334313,93.5708507 57.4446693,102.253594 C64.463079,110.747101 76.3855069,111.597325 84.2692921,104.047317 Z" id="Shape"></path>
            </g>
        </g>
    </g>
</svg>