<?xml version="1.0" encoding="UTF-8"?>
<svg width="186px" height="37px" viewBox="0 0 186 37" version="1.1" xmlns="http://www.w3.org/2000/svg" xmlns:xlink="http://www.w3.org/1999/xlink">
    <title>Group</title>
    <defs>
        <linearGradient x1="-0.0344058511%" y1="97.3181066%" x2="73.565763%" y2="-5.53148956%" id="linearGradient-1">
            <stop stop-color="#552FB1" offset="0%"></stop>
            <stop stop-color="#F30000" offset="100%"></stop>
        </linearGradient>
    </defs>
    <g id="Page-1" stroke="none" stroke-width="1" fill="none" fill-rule="evenodd">
        <g id="Desktop-HD" transform="translate(-98.000000, -58.000000)" fill-rule="nonzero">
            <g id="Group-6" transform="translate(98.000000, 58.000000)">
                <g id="verifycoin" transform="translate(47.413175, 3.250000)" fill="#FFFFFF">
                    <polygon id="Path" points="6.99478741 22.75 0 9.438 4.70652982 9.438 8.33393816 17.472 11.9613465 9.438 16.6678763 9.438 9.66008744 22.75"></polygon>
                    <path d="M25.2352797,23.166 C23.7964511,23.166 22.5071393,22.8561667 21.3673443,22.2365 C20.2275493,21.6168333 19.3239476,20.774 18.6565392,19.708 C17.9891307,18.642 17.6554265,17.4373333 17.6554265,16.094 C17.6554265,15.106 17.8439477,14.183 18.2209901,13.325 C18.5980326,12.467 19.1245919,11.7151667 19.800668,11.0695 C20.4767441,10.4238333 21.2611657,9.92116667 22.1539329,9.5615 C23.0467,9.20183333 24.0131422,9.022 25.0532592,9.022 C26.440082,9.022 27.6557189,9.31016667 28.7001698,9.8865 C29.7446207,10.4628333 30.5593791,11.2623333 31.1444449,12.285 C31.7295108,13.3076667 32.0220437,14.4993333 32.0220437,15.86 C32.0220437,15.9726667 32.0198768,16.0701667 32.015543,16.1525 C32.0112092,16.2348333 31.9960408,16.3886667 31.9700379,16.614 L21.763889,16.614 C21.763889,17.29 21.9177396,17.8793333 22.2254409,18.382 C22.5331422,18.8846667 22.9643574,19.2768333 23.5190865,19.5585 C24.0738157,19.8401667 24.719555,19.981 25.4563046,19.981 C26.149716,19.981 26.7629517,19.8466667 27.2960117,19.578 C27.8290717,19.3093333 28.3426295,18.8803333 28.8366851,18.291 L31.7100086,19.734 C31.0859383,20.8086667 30.2018388,21.6493333 29.05771,22.256 C27.9135812,22.8626667 26.6394378,23.166 25.2352797,23.166 Z M21.9069051,14.404 L28.0956017,14.404 C28.0089253,13.8926667 27.8247379,13.4506667 27.5430395,13.078 C27.2613411,12.7053333 26.9038009,12.4193333 26.4704188,12.22 C26.0370367,12.0206667 25.5473149,11.921 25.0012534,11.921 C24.4205214,11.921 23.9091305,12.0206667 23.4670807,12.22 C23.0250309,12.4193333 22.6696576,12.7053333 22.4009607,13.078 C22.1322638,13.4506667 21.9675786,13.8926667 21.9069051,14.404 Z" id="Shape"></path>
                    <path d="M35.6426972,22.75 L35.6426972,9.438 L39.6341465,9.438 L39.6341465,11.349 C40.1282021,10.6036667 40.7327702,10.0295 41.4478507,9.6265 C42.1629312,9.2235 42.9321844,9.022 43.7556104,9.022 C44.2236631,9.022 44.7090511,9.09133333 45.2117744,9.23 C45.7144976,9.36866667 46.1348783,9.54633333 46.4729163,9.763 L44.808729,13.13 C44.5140292,12.9306667 44.1694904,12.7725 43.7751126,12.6555 C43.3807349,12.5385 43.014527,12.48 42.676489,12.48 C42.1564304,12.48 41.6623748,12.6143333 41.1943221,12.883 C40.7262694,13.1516667 40.349227,13.5005 40.0631948,13.9295 C39.7771626,14.3585 39.6341465,14.82 39.6341465,15.314 L39.6341465,22.75 L35.6426972,22.75 Z" id="Path"></path>
                    <path d="M48.6748647,22.75 L48.6748647,9.438 L52.666314,9.438 L52.666314,22.75 L48.6748647,22.75 Z M50.6770901,6.669 C50.243708,6.669 49.8471633,6.56283333 49.4874562,6.3505 C49.127749,6.13816667 48.8395499,5.85 48.6228589,5.486 C48.4061678,5.122 48.2978223,4.72333333 48.2978223,4.29 C48.2978223,3.85666667 48.4061678,3.46233333 48.6228589,3.107 C48.8395499,2.75166667 49.127749,2.46783333 49.4874562,2.2555 C49.8471633,2.04316667 50.243708,1.937 50.6770901,1.937 C51.1104722,1.937 51.5048499,2.04316667 51.8602233,2.2555 C52.2155966,2.46783333 52.4994619,2.75166667 52.7118192,3.107 C52.9241764,3.46233333 53.030355,3.85666667 53.030355,4.29 C53.030355,4.72333333 52.9241764,5.122 52.7118192,5.486 C52.4994619,5.85 52.2155966,6.13816667 51.8602233,6.3505 C51.5048499,6.56283333 51.1104722,6.669 50.6770901,6.669 Z" id="Shape"></path>
                    <path d="M57.9465812,22.75 L57.9465812,12.467 L56.1653807,12.467 L56.1653807,9.438 L57.9465812,9.438 L57.9465812,6.136 C57.9465812,4.888 58.1437701,3.8025 58.5381478,2.8795 C58.9325255,1.9565 59.4937554,1.24583333 60.2218373,0.7475 C60.9499193,0.249166667 61.829685,0 62.8611345,0 C63.50254,0 64.1309441,0.0975 64.7463467,0.2925 C65.3617493,0.4875 65.8861416,0.758333333 66.3195238,1.105 L64.9413686,3.9 C64.5339894,3.64866667 64.0702706,3.523 63.550212,3.523 C63.0994946,3.523 62.7592897,3.63783333 62.5295971,3.8675 C62.2999046,4.09716667 62.143887,4.4135 62.0615444,4.8165 C61.9792018,5.2195 61.9380305,5.68966667 61.9380305,6.227 L61.9380305,9.438 L65.0843847,9.438 L65.0843847,12.467 L61.9380305,12.467 L61.9380305,22.75 L57.9465812,22.75 Z" id="Path"></path>
                    <polygon id="Path" points="67.5052616 29.51 71.8087461 21.086 65.4770333 9.438 70.0535485 9.438 74.1360081 17.238 77.6724062 9.438 82.2489213 9.438 72.0687754 29.51"></polygon>
                    <path d="M90.6785283,23.166 C89.6644141,23.166 88.7088066,22.984 87.8117056,22.62 C86.9146046,22.256 86.1236822,21.7511667 85.4389385,21.1055 C84.7541947,20.4598333 84.2168009,19.7101667 83.826757,18.8565 C83.4367131,18.0028333 83.2416911,17.0863333 83.2416911,16.107 C83.2416911,15.1623333 83.4258785,14.2653333 83.7942533,13.416 C84.1626281,12.5666667 84.6826867,11.8126667 85.354429,11.154 C86.0261712,10.4953333 86.8149267,9.97533333 87.7206953,9.594 C88.626464,9.21266667 89.6080745,9.022 90.6655268,9.022 C91.5236234,9.022 92.3492164,9.14333333 93.1423056,9.386 C93.9353949,9.62866667 94.5746335,9.94066667 95.0600215,10.322 L93.6948678,13.013 C93.0447947,12.5363333 92.2387039,12.298 91.2765956,12.298 C90.4531696,12.298 89.7554244,12.48 89.18336,12.844 C88.6112956,13.208 88.1757466,13.6803333 87.8767129,14.261 C87.5776792,14.8416667 87.4281624,15.4526667 87.4281624,16.094 C87.4281624,16.796 87.5885138,17.4351667 87.9092165,18.0115 C88.2299193,18.5878333 88.6828036,19.045 89.2678695,19.383 C89.8529354,19.721 90.5311784,19.89 91.3025985,19.89 C91.7793189,19.89 92.2257025,19.825 92.6417493,19.695 C93.0577961,19.565 93.4088356,19.3916667 93.6948678,19.175 L95.0600215,21.866 C94.5659659,22.2386667 93.9288942,22.5485 93.1488064,22.7955 C92.3687186,23.0425 91.5452925,23.166 90.6785283,23.166 Z" id="Path"></path>
                    <path d="M104.908937,23.166 C103.444106,23.166 102.12229,22.8648333 100.943491,22.2625 C99.7646913,21.6601667 98.828586,20.8281667 98.1351746,19.7665 C97.4417632,18.7048333 97.0950575,17.4806667 97.0950575,16.094 C97.0950575,14.7073333 97.4395963,13.4831667 98.1286738,12.4215 C98.8177514,11.3598333 99.7538568,10.5278333 100.93699,9.9255 C102.120123,9.32316667 103.444106,9.022 104.908937,9.022 C106.382436,9.022 107.708586,9.32316667 108.887385,9.9255 C110.066184,10.5278333 111.000123,11.3598333 111.6892,12.4215 C112.378278,13.4831667 112.722817,14.7073333 112.722817,16.094 C112.722817,17.4806667 112.378278,18.7048333 111.6892,19.7665 C111.000123,20.8281667 110.066184,21.6601667 108.887385,22.2625 C107.708586,22.8648333 106.382436,23.166 104.908937,23.166 Z M104.921939,19.76 C105.598015,19.76 106.213417,19.604 106.768146,19.292 C107.322876,18.98 107.760591,18.5488333 108.081294,17.9985 C108.401997,17.4481667 108.562348,16.8133333 108.562348,16.094 C108.562348,15.3746667 108.401997,14.7398333 108.081294,14.1895 C107.760591,13.6391667 107.322876,13.208 106.768146,12.896 C106.213417,12.584 105.598015,12.428 104.921939,12.428 C104.237195,12.428 103.619625,12.584 103.06923,12.896 C102.518835,13.208 102.083286,13.6391667 101.762583,14.1895 C101.44188,14.7398333 101.281529,15.3746667 101.281529,16.094 C101.281529,16.8133333 101.44188,17.4481667 101.762583,17.9985 C102.083286,18.5488333 102.518835,18.98 103.06923,19.292 C103.619625,19.604 104.237195,19.76 104.921939,19.76 Z" id="Shape"></path>
                    <path d="M116.248638,22.75 L116.248638,9.438 L120.240087,9.438 L120.240087,22.75 L116.248638,22.75 Z M118.250863,6.669 C117.817481,6.669 117.420936,6.56283333 117.061229,6.3505 C116.701522,6.13816667 116.413323,5.85 116.196632,5.486 C115.979941,5.122 115.871595,4.72333333 115.871595,4.29 C115.871595,3.85666667 115.979941,3.46233333 116.196632,3.107 C116.413323,2.75166667 116.701522,2.46783333 117.061229,2.2555 C117.420936,2.04316667 117.817481,1.937 118.250863,1.937 C118.684245,1.937 119.078623,2.04316667 119.433996,2.2555 C119.78937,2.46783333 120.073235,2.75166667 120.285592,3.107 C120.49795,3.46233333 120.604128,3.85666667 120.604128,4.29 C120.604128,4.72333333 120.49795,5.122 120.285592,5.486 C120.073235,5.85 119.78937,6.13816667 119.433996,6.3505 C119.078623,6.56283333 118.684245,6.669 118.250863,6.669 Z" id="Shape"></path>
                    <path d="M124.94829,22.75 L124.94829,9.438 L128.939739,9.438 L128.939739,10.92 C129.45113,10.348 130.090369,9.88866667 130.857455,9.542 C131.624542,9.19533333 132.471804,9.022 133.399241,9.022 C134.422023,9.022 135.321291,9.24516667 136.097045,9.6915 C136.872799,10.1378333 137.481701,10.7575 137.923751,11.5505 C138.3658,12.3435 138.586825,13.2686667 138.586825,14.326 L138.586825,22.75 L134.595376,22.75 L134.595376,15.171 C134.595376,14.2176667 134.346181,13.4745 133.847792,12.9415 C133.349402,12.4085 132.666825,12.142 131.800061,12.142 C131.210662,12.142 130.701438,12.2611667 130.272389,12.4995 C129.843341,12.7378333 129.513971,13.0628333 129.284278,13.4745 C129.054586,13.8861667 128.939739,14.352 128.939739,14.872 L128.939739,22.75 L124.94829,22.75 Z" id="Path"></path>
                </g>
                <g id="Group" fill="url(#linearGradient-1)" transform="translate(17.021220, 18.500000) scale(-1, 1) rotate(-180.000000) translate(-17.021220, -18.500000) ">
                    <path d="M8.69097681,34.3689291 C4.35535154,32.917309 0.700801499,31.6553892 0.559602975,31.5564151 C0.368569677,31.4162018 0.335346495,31.3584669 0.41840445,31.3172277 C0.484850815,31.2759885 2.85200254,30.5089393 5.68427882,29.5934289 C8.5165551,28.6861663 10.958459,27.86963 11.1079633,27.7953994 C11.4485009,27.6221947 11.7890385,27.0695894 11.7890385,26.6901886 C11.7890385,26.3355315 11.4817241,25.7251912 11.1993271,25.5189952 C10.7092851,25.164338 10.6760619,25.1725858 5.26068325,26.8963847 C2.46993595,27.7871516 0.136007402,28.5129616 0.0778668332,28.5129616 C-0.00519112221,28.5129616 -0.0218027133,28.2655264 0.02803206,27.3170246 C0.0612552421,26.6571973 0.119395811,26.0303613 0.152618993,25.9313872 C0.219065357,25.7746782 0.974892752,25.5024995 5.56799769,23.9848966 C8.50824931,23.0198992 11.0498227,22.145628 11.2159387,22.038406 C11.5564763,21.8157143 11.7890385,21.3950744 11.7890385,20.9909302 C11.7807328,20.6280251 11.5315589,20.0836676 11.2574676,19.8774716 C10.7425083,19.4650795 10.7923431,19.4568316 5.39357598,21.2383654 L0.401792859,22.8961816 L0.459933428,22.508533 C0.551297179,21.8899449 1.04964491,19.9269586 1.12439707,19.8609759 C1.16592605,19.8279845 3.35035028,19.0774309 5.97498167,18.2031597 C8.59961306,17.3288885 10.9003184,16.5370958 11.0747401,16.4381217 C11.5149473,16.1989342 11.7225922,15.902012 11.7641212,15.4236371 C11.8305675,14.6400922 11.2657734,13.9967606 10.5016402,13.9967606 C10.2939953,13.9967606 8.67436522,14.4916311 6.15770917,15.324663 C3.94836756,16.0587209 2.12109254,16.6360698 2.09617515,16.6030785 C2.02142299,16.5370958 2.54468811,15.3164152 3.24237493,13.9142822 C5.80886576,8.79237257 9.87039978,4.39627305 15.4103654,0.734231419 C16.4984246,0.0166692076 16.8306564,-0.0988005735 17.3290042,0.0661562567 C17.7110708,0.189873879 19.0233865,1.05589724 20.4270659,2.10337311 C27.2045951,7.20053916 31.3741044,13.2544548 33.1432389,20.5620424 C33.7246446,22.97866 33.9655126,25.0241247 34.0236532,28.1088174 C34.073488,30.6821439 34.0485706,30.8800921 33.6415866,31.2677407 C33.2678258,31.6223979 17.6280128,37.0082384 16.9967724,37 C16.6562347,37 14.8871003,36.4391373 8.69097681,34.3689291 Z" id="Path"></path>
                </g>
            </g>
        </g>
    </g>
</svg>